<svg width="40" height="39" viewBox="0 0 40 39" fill="none" xmlns="http://www.w3.org/2000/svg">
<path d="M34.9836 24.3051V29.0931C34.9836 29.9435 34.6458 30.7589 34.0446 31.3602C33.4433 31.9615 32.6278 32.2993 31.7775 32.2993H7.35456C6.50439 32.2993 5.68902 31.9616 5.08778 31.3605C4.48654 30.7594 4.14865 29.9441 4.14844 29.094V9.90677C4.14833 9.48566 4.23118 9.06866 4.39226 8.67959C4.55333 8.29051 4.78948 7.93697 5.0872 7.63917C5.38493 7.34137 5.73841 7.10513 6.12744 6.94396C6.51648 6.78278 6.93346 6.69983 7.35456 6.69983H31.7775C32.1986 6.69983 32.6156 6.78278 33.0046 6.94396C33.3937 7.10513 33.7471 7.34137 34.0449 7.63917C34.3426 7.93697 34.5787 8.29051 34.7398 8.67959C34.9009 9.06866 34.9837 9.48566 34.9836 9.90677V14.8614" stroke="#4F17B4" stroke-width="2.4375" stroke-linecap="round" stroke-linejoin="round"/>
<path d="M34.8558 24.3141H26.431C25.1764 24.3141 23.9732 23.8157 23.0861 22.9286C22.199 22.0415 21.7006 20.8383 21.7006 19.5837C21.7005 18.9625 21.8228 18.3472 22.0605 17.7732C22.2981 17.1992 22.6466 16.6777 23.0858 16.2383C23.5251 15.799 24.0466 15.4505 24.6206 15.2127C25.1945 14.9749 25.8097 14.8525 26.431 14.8525H34.8566C35.3969 14.8525 35.8357 15.2913 35.8357 15.8324V23.335C35.8357 23.8754 35.3969 24.3141 34.8558 24.3141Z" stroke="#4F17B4" stroke-width="0.8125" stroke-linecap="round" stroke-linejoin="round"/>
<path d="M26.8646 21.8367C28.0784 21.8367 29.0624 20.8527 29.0624 19.6389C29.0624 18.425 28.0784 17.441 26.8646 17.441C25.6508 17.441 24.6668 18.425 24.6668 19.6389C24.6668 20.8527 25.6508 21.8367 26.8646 21.8367Z" stroke="#4F17B4" stroke-width="0.8125" stroke-linecap="round" stroke-linejoin="round"/>
</svg>
