<svg width="36" height="35" viewBox="0 0 36 35" fill="none" xmlns="http://www.w3.org/2000/svg">
<path d="M32.2109 18.426V7.58333C32.2109 7.19656 32.0573 6.82563 31.7838 6.55214C31.5103 6.27865 31.1394 6.125 30.7526 6.125H5.23177C4.845 6.125 4.47406 6.27865 4.20057 6.55214C3.92708 6.82563 3.77344 7.19656 3.77344 7.58333V27.4167C3.77344 27.8034 3.92708 28.1744 4.20057 28.4479C4.47406 28.7214 4.845 28.875 5.23177 28.875H25.1125M3.77344 11.4013H32.2109" stroke="#4F17B4" stroke-width="2" stroke-linecap="round" stroke-linejoin="round"/>
<path d="M27.8272 30.3333C29.3466 29.8688 30.6996 28.9753 31.7232 27.7601C32.7468 26.5449 33.3975 25.0598 33.5971 23.4835C33.6952 22.0829 33.6869 20.677 33.5723 19.2777C33.5569 19.0572 33.46 18.8503 33.3004 18.6974C33.1408 18.5445 32.9299 18.4566 32.7089 18.4508C31.1042 18.5211 29.5348 17.9662 28.331 16.9028C28.1968 16.7706 28.0159 16.6964 27.8275 16.6964C27.6391 16.6964 27.4583 16.7706 27.324 16.9028C26.1202 17.9662 24.5508 18.5211 22.9461 18.4508C22.7252 18.4566 22.5143 18.5445 22.3547 18.6974C22.1951 18.8503 22.0981 19.0572 22.0828 19.2777C21.9681 20.677 21.9598 22.0829 22.058 23.4835C22.2575 25.0597 22.9081 26.5447 23.9316 27.7599C24.9551 28.9751 26.3078 29.8687 27.8272 30.3333ZM27.8272 30.3333V16.6957" stroke="#4F17B4" stroke-width="0.729167" stroke-linecap="round" stroke-linejoin="round"/>
</svg>
