<svg width="26" height="21" viewBox="0 0 26 21" fill="none" xmlns="http://www.w3.org/2000/svg">
<path d="M14.3845 1.35425C14.7187 1.02018 15.1719 0.83252 15.6444 0.83252C16.1169 0.83252 16.57 1.02018 16.9042 1.35425L24.9229 9.37295C25.257 9.70711 25.4446 10.1603 25.4446 10.6328C25.4446 11.1053 25.257 11.5584 24.9229 11.8926L16.9042 19.9113C16.5681 20.2359 16.118 20.4155 15.6508 20.4114C15.1836 20.4074 14.7366 20.22 14.4062 19.8896C14.0759 19.5592 13.8885 19.1123 13.8844 18.6451C13.8803 18.1778 14.0599 17.7277 14.3845 17.3916L19.2082 12.4147H2.27986C1.80726 12.4147 1.35402 12.227 1.01984 11.8928C0.685664 11.5586 0.497925 11.1054 0.497925 10.6328C0.497925 10.1602 0.685664 9.70693 1.01984 9.37276C1.35402 9.03858 1.80726 8.85084 2.27986 8.85084H19.2082L14.3845 3.8739C14.0505 3.53974 13.8628 3.08658 13.8628 2.61407C13.8628 2.14157 14.0505 1.68841 14.3845 1.35425Z" fill="black"/>
</svg>
