<svg width="26" height="21" viewBox="0 0 26 21" fill="none" xmlns="http://www.w3.org/2000/svg">
<path d="M11.9729 19.89C11.6388 20.2241 11.1856 20.4117 10.7131 20.4117C10.2406 20.4117 9.78745 20.2241 9.45329 19.89L1.43459 11.8713C1.10053 11.5372 0.912865 11.084 0.912865 10.6115C0.912865 10.139 1.10053 9.68583 1.43459 9.35166L9.45329 1.33296C9.78937 1.00837 10.2395 0.82876 10.7067 0.832821C11.1739 0.836882 11.6209 1.02428 11.9512 1.35467C12.2816 1.68505 12.469 2.13199 12.4731 2.5992C12.4771 3.06642 12.2975 3.51654 11.9729 3.85262L7.14925 8.82956L24.0776 8.82956C24.5502 8.82956 25.0035 9.0173 25.3376 9.35147C25.6718 9.68565 25.8596 10.1389 25.8596 10.6115C25.8596 11.0841 25.6718 11.5373 25.3376 11.8715C25.0035 12.2057 24.5502 12.3934 24.0776 12.3934L7.14925 12.3934L11.9729 17.3704C12.307 17.7045 12.4947 18.1577 12.4947 18.6302C12.4947 19.1027 12.307 19.5559 11.9729 19.89Z" fill="black" fill-opacity="0.5"/>
</svg>
