<svg width="20" height="21" viewBox="0 0 20 21" fill="none" xmlns="http://www.w3.org/2000/svg">
<path d="M9.98983 0.2771C12.7054 0.2771 13.0442 0.287094 14.1096 0.337067C15.1741 0.387041 15.8987 0.553951 16.5363 0.801819C17.196 1.05568 17.7517 1.3995 18.3074 1.9542C18.8156 2.45383 19.2088 3.0582 19.4598 3.72525C19.7066 4.36191 19.8745 5.08752 19.9245 6.15195C19.9715 7.21738 19.9845 7.5562 19.9845 10.2717C19.9845 12.9873 19.9745 13.3261 19.9245 14.3915C19.8745 15.456 19.7066 16.1806 19.4598 16.8182C19.2096 17.4857 18.8162 18.0902 18.3074 18.5893C17.8076 19.0973 17.2033 19.4906 16.5363 19.7417C15.8997 19.9885 15.1741 20.1565 14.1096 20.2064C13.0442 20.2534 12.7054 20.2664 9.98983 20.2664C7.27428 20.2664 6.93546 20.2564 5.87003 20.2064C4.8056 20.1565 4.08099 19.9885 3.44333 19.7417C2.77602 19.4913 2.17154 19.098 1.67228 18.5893C1.16396 18.0897 0.770694 17.4854 0.519897 16.8182C0.27203 16.1816 0.105119 15.456 0.0551461 14.3915C0.00817121 13.3261 -0.00482178 12.9873 -0.00482178 10.2717C-0.00482178 7.5562 0.00517281 7.21738 0.0551461 6.15195C0.105119 5.08652 0.27203 4.36291 0.519897 3.72525C0.77 3.05779 1.16336 2.45326 1.67228 1.9542C2.17168 1.44571 2.77612 1.05241 3.44333 0.801819C4.08099 0.553951 4.8046 0.387041 5.87003 0.337067C6.93546 0.290093 7.27428 0.2771 9.98983 0.2771ZM9.98983 5.27442C8.66445 5.27442 7.39336 5.80093 6.45618 6.73811C5.519 7.67529 4.9925 8.94637 4.9925 10.2717C4.9925 11.5971 5.519 12.8682 6.45618 13.8054C7.39336 14.7426 8.66445 15.2691 9.98983 15.2691C11.3152 15.2691 12.5863 14.7426 13.5235 13.8054C14.4606 12.8682 14.9872 11.5971 14.9872 10.2717C14.9872 8.94637 14.4606 7.67529 13.5235 6.73811C12.5863 5.80093 11.3152 5.27442 9.98983 5.27442ZM16.4863 5.02456C16.4863 4.69321 16.3547 4.37544 16.1204 4.14115C15.8861 3.90685 15.5684 3.77523 15.237 3.77523C14.9057 3.77523 14.5879 3.90685 14.3536 4.14115C14.1193 4.37544 13.9877 4.69321 13.9877 5.02456C13.9877 5.3559 14.1193 5.67367 14.3536 5.90797C14.5879 6.14226 14.9057 6.27389 15.237 6.27389C15.5684 6.27389 15.8861 6.14226 16.1204 5.90797C16.3547 5.67367 16.4863 5.3559 16.4863 5.02456ZM9.98983 7.27335C10.7851 7.27335 11.5477 7.58925 12.11 8.15156C12.6723 8.71387 12.9882 9.47652 12.9882 10.2717C12.9882 11.067 12.6723 11.8296 12.11 12.3919C11.5477 12.9542 10.7851 13.2701 9.98983 13.2701C9.1946 13.2701 8.43195 12.9542 7.86964 12.3919C7.30733 11.8296 6.99143 11.067 6.99143 10.2717C6.99143 9.47652 7.30733 8.71387 7.86964 8.15156C8.43195 7.58925 9.1946 7.27335 9.98983 7.27335Z" fill="white"/>
</svg>
