<svg width="36" height="35" viewBox="0 0 36 35" fill="none" xmlns="http://www.w3.org/2000/svg">
<path d="M17.9922 2.1875L4.86719 6.5625V19.6875C4.86719 26.937 10.7427 32.8125 17.9922 32.8125C25.2417 32.8125 31.1172 26.937 31.1172 19.6875V6.5625L17.9922 2.1875ZM28.6562 19.6875C28.6562 25.5767 23.8813 30.3516 17.9922 30.3516C12.103 30.3516 7.32812 25.5767 7.32812 19.6875V8.4082L17.9922 4.64844L28.6562 8.4082V19.6875Z" fill="#4F17B4"/>
<path d="M13.4259 16.2388C13.3119 16.1242 13.1763 16.0333 13.027 15.9713C12.8778 15.9092 12.7177 15.8773 12.5561 15.8773C12.3944 15.8773 12.2343 15.9092 12.0851 15.9713C11.9358 16.0333 11.8002 16.1242 11.6862 16.2388C11.5716 16.3528 11.4807 16.4884 11.4187 16.6376C11.3566 16.7869 11.3247 16.947 11.3247 17.1086C11.3247 17.2703 11.3566 17.4304 11.4187 17.5796C11.4807 17.7289 11.5716 17.8645 11.6862 17.9785L16.109 22.4014L16.1808 22.4731C16.2887 22.5812 16.4168 22.667 16.5579 22.7255C16.6989 22.784 16.8501 22.8141 17.0028 22.8141C17.1555 22.8141 17.3067 22.784 17.4478 22.7255C17.5888 22.667 17.717 22.5812 17.8249 22.4731L25.464 14.834C25.5721 14.7261 25.6578 14.598 25.7163 14.4569C25.7748 14.3159 25.805 14.1647 25.805 14.012C25.805 13.8593 25.7748 13.7081 25.7163 13.567C25.6578 13.426 25.5721 13.2978 25.464 13.1899L25.3683 13.0942C25.2604 12.9862 25.1323 12.9004 24.9912 12.8419C24.8502 12.7834 24.699 12.7533 24.5463 12.7533C24.3936 12.7533 24.2424 12.7834 24.1013 12.8419C23.9603 12.9004 23.8321 12.9862 23.7243 13.0942L17.0011 19.814L13.4259 16.2388Z" fill="#4F17B4"/>
</svg>
