<svg width="20" height="17" viewBox="0 0 20 17" fill="none" xmlns="http://www.w3.org/2000/svg">
<path d="M19.9939 2.07063C19.2454 2.40243 18.4513 2.62007 17.6382 2.71629C18.4949 2.20402 19.1361 1.39763 19.4422 0.447503C18.6373 0.925719 17.7563 1.26242 16.8376 1.44297C16.2747 0.843715 15.5448 0.427403 14.7424 0.248017C13.94 0.0686323 13.1023 0.13445 12.3378 0.436935C11.5733 0.73942 10.9173 1.26462 10.4548 1.94443C9.99243 2.62424 9.74493 3.42729 9.74442 4.24947C9.74387 4.56394 9.77907 4.87745 9.84937 5.18397C8.219 5.10212 6.62406 4.67836 5.16807 3.9402C3.71207 3.20205 2.42756 2.16599 1.39789 0.899262C0.873434 1.80213 0.712759 2.87094 0.948575 3.8881C1.18439 4.90527 1.79897 5.79434 2.66721 6.37433C2.01549 6.35435 1.37803 6.17854 0.808208 5.8616V5.91358C0.808367 6.86054 1.13609 7.77829 1.73579 8.51116C2.33549 9.24402 3.17024 9.74688 4.09845 9.93443C3.74632 10.0302 3.38294 10.0782 3.01802 10.0773C2.75882 10.0775 2.50017 10.0534 2.24544 10.0054C2.50735 10.8201 3.01729 11.5326 3.70397 12.0433C4.39066 12.554 5.21976 12.8374 6.07539 12.8539C4.35573 14.1998 2.17289 14.8097 0.00463867 14.55C1.87969 15.7553 4.06221 16.3952 6.29127 16.393C7.82622 16.4033 9.34793 16.1086 10.768 15.526C12.1881 14.9433 13.4783 14.0843 14.5637 12.9989C15.649 11.9135 16.5079 10.6232 17.0904 9.20304C17.6729 7.78289 17.9675 6.26116 17.957 4.72621C17.957 4.54831 17.9527 4.37174 17.944 4.1965C18.7481 3.61521 19.4423 2.89535 19.9939 2.07063Z" fill="white"/>
</svg>
