<svg width="21" height="21" viewBox="0 0 21 21" fill="none" xmlns="http://www.w3.org/2000/svg">
<path d="M0.982666 10.2741C0.983229 12.6541 1.83268 14.9559 3.37835 16.7657C4.92401 18.5756 7.06452 19.7748 9.41515 20.1478V13.1625H6.87951V10.2741H9.41815V8.07525C9.36209 7.56062 9.42004 7.03995 9.58788 6.55023C9.75572 6.06052 10.0293 5.61376 10.3893 5.2417C10.7492 4.86964 11.1867 4.58139 11.6706 4.39744C12.1545 4.21349 12.6729 4.13834 13.1891 4.17734C13.9387 4.18933 14.6883 4.2563 15.4279 4.37723V6.83491H14.1646C13.9499 6.80679 13.7316 6.82728 13.5259 6.89486C13.3201 6.96245 13.1322 7.0754 12.976 7.22537C12.8198 7.37534 12.6993 7.5585 12.6234 7.76131C12.5475 7.96412 12.5181 8.1814 12.5375 8.39708V10.2741H15.307L14.8642 13.1635H12.5375V20.1478C14.4241 19.8496 16.1858 19.0171 17.6139 17.7488C19.0421 16.4806 20.0769 14.8296 20.5959 12.9914C21.1149 11.1533 21.0963 9.20489 20.5424 7.37696C19.9884 5.54903 18.9223 3.91811 17.4702 2.67728C16.0181 1.43646 14.2409 0.637703 12.3489 0.375578C10.457 0.113453 8.52955 0.398939 6.79481 1.19824C5.06007 1.99753 3.59069 3.27717 2.56063 4.88564C1.53057 6.49411 0.982969 8.36405 0.982666 10.2741Z" fill="white"/>
</svg>
